STARTFONT 2.1
FONT -FontForge-Fayette Handwritten Script-Book-R-Normal--64-610-75-75-P-236-ISO10646-1
SIZE 61 75 75
FONTBOUNDINGBOX 84 65 -20 -29
COMMENT "Generated by fontforge, http://fontforge.sourceforge.net"
COMMENT "Mia Cinelli, 2012"
STARTPROPERTIES 39
FOUNDRY "FontForge"
FAMILY_NAME "Fayette Handwritten Script"
WEIGHT_NAME "Book"
SLANT "R"
SETWIDTH_NAME "Normal"
ADD_STYLE_NAME ""
PIXEL_SIZE 64
POINT_SIZE 610
RESOLUTION_X 75
RESOLUTION_Y 75
SPACING "P"
AVERAGE_WIDTH 236
CHARSET_REGISTRY "ISO10646"
CHARSET_ENCODING "1"
FONTNAME_REGISTRY ""
CHARSET_COLLECTIONS "ISO10646-1"
FONT_NAME "Fayette-HandwrittenScript"
FACE_NAME "Fayette Handwritten Script Regular"
COPYRIGHT "Mia Cinelli, 2012"
FONT_VERSION "0.000;PS 0.0;hotconv 1.0.72;makeotf.lib2.5.5900 DEVELOPMENT"
FONT_ASCENT 35
FONT_DESCENT 29
UNDERLINE_POSITION -5
UNDERLINE_THICKNESS 3
X_HEIGHT 11
CAP_HEIGHT 28
RAW_ASCENT 551
RAW_DESCENT 448
NORM_SPACE 15
RELATIVE_WEIGHT 40
RELATIVE_SETWIDTH 50
SUPERSCRIPT_X 0
SUPERSCRIPT_Y 22
SUPERSCRIPT_SIZE 38
SUBSCRIPT_X 0
SUBSCRIPT_Y 4
SUBSCRIPT_SIZE 38
AVG_LOWERCASE_WIDTH 166
AVG_UPPERCASE_WIDTH 277
ENDPROPERTIES
CHARS 207
STARTCHAR space
ENCODING 32
SWIDTH 227 0
DWIDTH 15 0
BBX 1 1 0 0
BITMAP
00
ENDCHAR
STARTCHAR exclam
ENCODING 33
SWIDTH 330 0
DWIDTH 21 0
BBX 26 29 10 0
BITMAP
000001C0
000003C0
00000380
00000700
00000E00
00001C00
00003800
00007800
0000F000
0001E000
0001C000
00038000
00070000
000E0000
001C0000
00380000
00700000
00600000
00C00000
01C00000
03800000
07000000
06000000
04000000
00000000
00000000
40000000
E0000000
C0000000
ENDCHAR
STARTCHAR quotedbl
ENCODING 34
SWIDTH 102 0
DWIDTH 7 0
BBX 6 6 12 24
BITMAP
C8
DC
CC
88
88
08
ENDCHAR
STARTCHAR numbersign
ENCODING 35
SWIDTH 493 0
DWIDTH 32 0
BBX 24 23 5 0
BITMAP
000061
0000E3
0000C6
00018C
000318
000618
000C30
001860
1FFFFF
1FFFFE
006300
00C600
FFFFFC
030C00
061800
043000
0C6000
18C000
308000
618000
C30000
860000
040000
ENDCHAR
STARTCHAR dollar
ENCODING 36
SWIDTH 578 0
DWIDTH 37 0
BBX 25 29 11 -4
BITMAP
00000180
00000300
00000600
00000600
00018C00
0007F800
000E7800
001C7800
0018DC00
00398C00
00398C00
001B0000
001E0000
001C0000
001C0000
003C0000
003C0000
10660000
30C60000
39860000
1B0E0000
1E0C0000
0E3C0000
0FF80000
1BE00000
30000000
60000000
C0000000
80000000
ENDCHAR
STARTCHAR percent
ENCODING 37
SWIDTH 452 0
DWIDTH 29 0
BBX 21 26 3 0
BITMAP
000008
000018
000030
000020
1C0060
3E00C0
230180
630300
230600
3E0400
080C00
001800
003000
006000
00C000
0080C0
0101F0
030330
060310
0C0310
1801F0
1000C0
200000
400000
C00000
800000
ENDCHAR
STARTCHAR ampersand
ENCODING 38
SWIDTH 408 0
DWIDTH 26 0
BBX 21 29 11 -4
BITMAP
003C00
00FE00
01C600
018300
010300
010300
010200
010600
019800
00F000
03C000
0E4000
386000
703E00
E03F80
C05180
C088C0
C08CC0
C08440
C002C0
E00380
600180
700680
1E3CC0
07F060
000020
000010
000018
000008
ENDCHAR
STARTCHAR parenleft
ENCODING 40
SWIDTH 289 0
DWIDTH 19 0
BBX 28 36 9 -6
BITMAP
00000070
000001E0
00000780
00000E00
00003800
00007000
0000C000
00038000
00070000
000C0000
00180000
00300000
00200000
00600000
00C00000
01800000
01000000
03000000
06000000
06000000
0C000000
0C000000
18000000
18000000
10000000
30000000
20000000
20000000
60000000
40000000
40000000
40000000
C0000000
C0000000
C0000000
80000000
ENDCHAR
STARTCHAR parenright
ENCODING 41
SWIDTH 480 0
DWIDTH 31 0
BBX 28 36 4 -6
BITMAP
00000030
00000030
00000020
00000020
00000020
00000060
00000060
00000040
00000040
000000C0
00000080
00000180
00000180
00000100
00000300
00000200
00000600
00000C00
00000C00
00001800
00003000
00003000
00006000
0000C000
00018000
00030000
00060000
000C0000
00180000
00700000
00C00000
03800000
0E000000
3C000000
F0000000
80000000
ENDCHAR
STARTCHAR asterisk
ENCODING 42
SWIDTH 363 0
DWIDTH 23 0
BBX 6 6 20 20
BITMAP
48
28
FC
FC
28
48
ENDCHAR
STARTCHAR plus
ENCODING 43
SWIDTH 466 0
DWIDTH 30 0
BBX 15 11 8 5
BITMAP
0010
0030
0060
00C0
01C0
FFFE
0300
0600
0E00
0C00
0800
ENDCHAR
STARTCHAR comma
ENCODING 44
SWIDTH 116 0
DWIDTH 7 0
BBX 4 4 9 -2
BITMAP
70
70
60
C0
ENDCHAR
STARTCHAR hyphen
ENCODING 45
SWIDTH 299 0
DWIDTH 19 0
BBX 10 2 3 5
BITMAP
FFC0
7F80
ENDCHAR
STARTCHAR period
ENCODING 46
SWIDTH 150 0
DWIDTH 10 0
BBX 3 3 10 0
BITMAP
E0
E0
C0
ENDCHAR
STARTCHAR slash
ENCODING 47
SWIDTH 398 0
DWIDTH 26 0
BBX 24 29 11 -1
BITMAP
000001
000003
000006
00000C
000018
000030
000030
000060
0000C0
000180
000300
000600
000E00
000C00
001800
003000
006000
00C000
01C000
018000
030000
060000
0C0000
180000
300000
200000
600000
C00000
800000
ENDCHAR
STARTCHAR zero
ENCODING 48
SWIDTH 263 0
DWIDTH 17 0
BBX 13 12 0 0
BITMAP
03C0
0FE0
1C30
3818
7008
7018
F018
E018
F030
7060
7FC0
1F00
ENDCHAR
STARTCHAR one
ENCODING 49
SWIDTH 181 0
DWIDTH 12 0
BBX 16 19 1 0
BITMAP
0001
0003
0006
000C
0018
0030
0070
0060
00C0
0180
0300
0600
0C00
1800
1800
3000
6000
C000
8000
ENDCHAR
STARTCHAR two
ENCODING 50
SWIDTH 262 0
DWIDTH 17 0
BBX 16 18 0 0
BITMAP
0180
0380
0378
07F8
0E08
1C18
0018
0030
0060
00C0
0180
0300
0600
0E00
3F00
71C0
E0FF
C07C
ENDCHAR
STARTCHAR three
ENCODING 51
SWIDTH 247 0
DWIDTH 16 0
BBX 14 19 1 0
BITMAP
0038
00F8
00EC
004C
000C
001C
0038
00E0
20B0
F010
F018
9810
9830
9830
B860
B0C0
F1C0
7700
3E00
ENDCHAR
STARTCHAR four
ENCODING 52
SWIDTH 381 0
DWIDTH 24 0
BBX 24 28 1 -10
BITMAP
000003
000006
00000E
00001C
000018
000030
000060
0000C0
000180
000380
070700
0F0600
0F0C00
1E1800
1C3000
386020
7FFFE0
7FFF80
018000
030000
060000
0C0000
180000
300000
600000
600000
C00000
800000
ENDCHAR
STARTCHAR five
ENCODING 53
SWIDTH 256 0
DWIDTH 16 0
BBX 22 17 -1 0
BITMAP
000700
000FC0
000C70
00183C
00300C
007000
00F800
00C800
008C00
C00C00
E00800
E00800
E01000
603000
706000
39C000
1F0000
ENDCHAR
STARTCHAR six
ENCODING 54
SWIDTH 261 0
DWIDTH 17 0
BBX 13 19 2 0
BITMAP
0010
0070
00E0
01C0
0380
0700
0E00
0C00
1C00
3800
7000
6000
61F0
E718
CC08
D810
F030
70C0
3F00
ENDCHAR
STARTCHAR seven
ENCODING 55
SWIDTH 219 0
DWIDTH 14 0
BBX 25 30 -9 -19
BITMAP
00060180
000F8380
001DFF00
00380600
00300C00
00201800
00003000
00006000
00006000
0000C000
00018000
00030000
00060000
000E0000
000C0000
00180000
00300000
00600000
00C00000
01C00000
01800000
03000000
06000000
0E000000
1C000000
38000000
70000000
F0000000
E0000000
C0000000
ENDCHAR
STARTCHAR eight
ENCODING 56
SWIDTH 282 0
DWIDTH 18 0
BBX 14 19 4 0
BITMAP
0208
1FF8
387C
7064
70C0
7180
3B00
3E00
1E00
0E00
1E00
3700
6700
C300
8300
8300
C700
FE00
7800
ENDCHAR
STARTCHAR nine
ENCODING 57
SWIDTH 254 0
DWIDTH 16 0
BBX 20 31 -6 -19
BITMAP
000700
003FC0
0078E0
00F030
00E030
01C030
01C030
01C060
01C0E0
01E1C0
00FF80
007F80
000300
000600
000C00
000C00
001800
003000
006000
00C000
01C000
038000
030000
060000
0C0000
180000
380000
700000
600000
C00000
800000
ENDCHAR
STARTCHAR colon
ENCODING 58
SWIDTH 367 0
DWIDTH 24 0
BBX 3 11 15 0
BITMAP
E0
E0
40
00
00
00
00
00
60
E0
C0
ENDCHAR
STARTCHAR semicolon
ENCODING 59
SWIDTH 276 0
DWIDTH 18 0
BBX 3 14 15 -3
BITMAP
E0
E0
40
00
00
00
00
00
00
C0
C0
C0
40
80
ENDCHAR
STARTCHAR less
ENCODING 60
SWIDTH 367 0
DWIDTH 24 0
BBX 11 12 0 0
BITMAP
0020
00E0
0380
0E00
3800
E000
C000
7000
1C00
0700
01C0
0040
ENDCHAR
STARTCHAR equal
ENCODING 61
SWIDTH 516 0
DWIDTH 33 0
BBX 17 5 9 9
BITMAP
FFFF80
000000
000000
000000
3FFF80
ENDCHAR
STARTCHAR greater
ENCODING 62
SWIDTH 575 0
DWIDTH 37 0
BBX 10 11 5 0
BITMAP
E000
3800
0E00
0380
00C0
00C0
0380
0E00
3800
E000
8000
ENDCHAR
STARTCHAR question
ENCODING 63
SWIDTH 297 0
DWIDTH 19 0
BBX 19 29 12 0
BITMAP
001800
007F00
01FF80
0383C0
0301E0
0600E0
0600E0
0C00E0
0400E0
0000E0
0001C0
000380
000F00
001E00
003800
00E000
01C000
018000
030000
060000
0E0000
1C0000
180000
100000
000000
000000
C00000
C00000
800000
ENDCHAR
STARTCHAR at
ENCODING 64
SWIDTH 536 0
DWIDTH 34 0
BBX 25 25 14 0
BITMAP
003E0000
01FFE000
07C0F000
0F001C00
1C000600
38000200
70000300
701E0100
E03FC100
E0F1C180
C1C18180
C3818180
C3030100
C3030100
C6070300
C60F0600
C33BFC00
E1E1E100
60000300
70000600
38000C00
1E001800
0F807000
03FFE000
007F0000
ENDCHAR
STARTCHAR A
ENCODING 65
SWIDTH 519 0
DWIDTH 33 0
BBX 46 42 6 -13
BITMAP
00000000001C
00000000003C
00000000006C
0000000000C8
000000000190
000000000320
000000000360
0000000006C0
000000000D80
000000001E00
000000003C00
000000003800
000000007000
00000000E000
00000001C000
000000038000
0000000F8000
0000001F0000
000000760000
000001CC0000
0001831C0000
00006E180000
00003C300000
0000E7700000
780380E00000
F00E00F00000
F03800C80000
70E001800000
1F0001800000
000003000000
000002000000
000006000000
000004000000
00000C000000
000008000000
000018000000
000010000000
000030000000
000020000000
000060000000
000060000000
000040000000
ENDCHAR
STARTCHAR B
ENCODING 66
SWIDTH 469 0
DWIDTH 30 0
BBX 33 32 8 -3
BITMAP
00003FC000
0001FBF800
0007800E00
001E000F00
0038000F80
0070001980
00C0003980
0180003180
0300006180
060000C380
0C0001C300
1800018700
1800030E00
3000071C00
20000FF800
60000FC000
600018C000
400030C000
C00060C000
C00060C000
C01CC18000
C037818000
C063038000
E063030000
6067060000
707D0E0000
30393C0000
1FFB700000
0FCFC00000
0002000000
0002000000
0002000000
ENDCHAR
STARTCHAR C
ENCODING 67
SWIDTH 455 0
DWIDTH 29 0
BBX 26 29 14 0
BITMAP
0001F800
00060C00
00180600
00300600
00C00F00
01801F00
03003B00
07003300
0E006300
0C00C200
1C018200
38038600
30030600
70060C00
60060C00
E0061800
E00E3000
C00E6000
C007C000
C0038040
C0000080
C0000100
E0000200
E0000400
70001800
30003000
3C00E000
0FFF8000
03F80000
ENDCHAR
STARTCHAR D
ENCODING 68
SWIDTH 609 0
DWIDTH 39 0
BBX 37 29 11 0
BITMAP
00000000E0
00000003F0
0000000E38
0000001818
0000003018
0000006018
0000004018
000000C018
0000018018
0C00010018
1800030018
3000020038
6000060038
E000060030
C003840070
C00D0C0070
C01B0C00E0
E0620C00E0
7FC40C01C0
1C0C0C01C0
003C0C0380
00FE0C0380
01B7040700
0363840E00
0441821C00
0C81C07800
0900F9F000
1E007FE000
0C000F8000
ENDCHAR
STARTCHAR E
ENCODING 69
SWIDTH 427 0
DWIDTH 27 0
BBX 26 29 13 0
BITMAP
00007180
0001FD80
00038780
000603C0
000E0180
000C0000
000C0000
00060000
000F8000
003F0000
00F00000
01C00000
07800000
0E000000
1C000000
380FC000
78186000
70302000
F0602000
E0C06040
E0C060C0
E0804180
E080C600
E0C19C00
E0E3F000
607F8000
70380000
3CF00000
0F800000
ENDCHAR
STARTCHAR F
ENCODING 70
SWIDTH 427 0
DWIDTH 27 0
BBX 26 29 13 0
BITMAP
00007E00
0001C700
00070180
000E01C0
001E00C0
003F00C0
006F04C0
00470EC0
00CE18C0
018C30C0
011C2040
03386000
0230C000
02618000
07E30C00
03C33800
0307F000
001F6000
01F8C000
00318000
00610000
E0C00000
E1C00000
E3800000
C3000000
C6000000
CC000000
F8000000
70000000
ENDCHAR
STARTCHAR G
ENCODING 71
SWIDTH 622 0
DWIDTH 40 0
BBX 36 29 11 0
BITMAP
000001C000
000003E000
0000072000
00000C2020
00001C6070
0000184070
000018C0F0
000038C0F0
00003981B0
00001981A0
00001B0720
00001E1E20
00000FF860
00000FC060
0000180060
0000180060
00003000C0
00006000C0
00006001C0
0000C00180
0381800380
01FF7E0300
00DFF00700
7C7C000E00
7838001C00
F07C007800
71C703F000
7F83FFC000
1E007E0000
ENDCHAR
STARTCHAR H
ENCODING 72
SWIDTH 430 0
DWIDTH 28 0
BBX 35 37 10 -8
BITMAP
00000000C0
00000003E0
0000000620
0000000C40
0000001840
0000003080
000F006180
001B80C300
0021808600
0041818C00
0001831800
0001063000
0003066000
00030DC000
00070F0000
00061E0000
0007F80000
001FF00000
007C700000
0398600000
0E18600000
1830C00000
2060C00000
40E0800000
C0C1800000
8381800000
8701800000
FE01800000
7801800000
0001800000
0001800000
0001800000
0001800000
0000800000
0000800000
0000800000
0000C00000
ENDCHAR
STARTCHAR I
ENCODING 73
SWIDTH 356 0
DWIDTH 23 0
BBX 27 29 8 0
BITMAP
000000E0
000001E0
00000720
00000E60
00000C60
00001C40
000038C0
00003080
00007180
00007100
00006200
00006600
00006400
00006C00
0003F800
0007F000
000C7800
00187800
0010FC00
0011C800
00118000
00030000
00060000
781C0000
F0380000
F0700000
E1C00000
77800000
3E000000
ENDCHAR
STARTCHAR J
ENCODING 74
SWIDTH 302 0
DWIDTH 19 0
BBX 34 46 -6 -16
BITMAP
000000E000
000001F800
0000031800
0000060C00
0000040C00
0000040E00
00000C0600
0000080600
0000080600
0000080600
0000080600
0000080600
0000080600
0000080600
0000080600
0000080600
0000080E00
00000C0C00
00000C0C00
00000C0C00
0000041C00
0000043E00
000007F800
00000F3000
00003E3000
0000C26000
0003036000
000E03C000
003801C000
0060018000
00C0038000
0380038000
060006C000
0C000E4000
18001C6000
3000382000
2000703000
6000E01000
4001C01800
C003800800
800F000C00
801E000600
C078000300
C1F0000100
FFC0000180
7F000000C0
ENDCHAR
STARTCHAR K
ENCODING 75
SWIDTH 600 0
DWIDTH 38 0
BBX 58 37 1 -8
BITMAP
00000000000000C0
0000000000000180
0000000000000300
0000000000000600
0000000000001C00
0000000000003800
0000000002006000
000000000601C000
000000000E038000
000000001E060000
000000003C1C0000
000000007C380000
00000000D8700000
0000000339C00000
000000063B800000
0000001C7F000000
00000030FE000000
000000E0EE000000
00000181CE000000
000007038E000000
00001C078E000000
00003C070C000000
0000EE0E0C000000
3801C61C0C000000
F006C6380C000000
E018C6700C000000
E0707CE00C000000
F1C07FC00C000000
7F001F000C000000
000000000C000000
000000000C000000
000000000C000000
000000000C000000
000000000C000000
000000000C000000
000000000E000000
0000000002000000
ENDCHAR
STARTCHAR L
ENCODING 76
SWIDTH 434 0
DWIDTH 28 0
BBX 33 38 13 -9
BITMAP
0000000600
0000000F00
0000001F80
0000003980
0000007380
00F800E300
01F000C700
01E001CE00
01E0019C00
00E003F800
00603FE000
001FFE0000
00000C0000
0000180000
0000300000
0000600000
0000E00000
0001C00000
0003800000
0007000000
000E000000
001C000000
0038000000
3F70000000
E3E0000000
C1E0000000
C3B0000000
FE18000000
780C000000
0006000000
0003000000
0001000000
0000800000
0000C00000
0000400000
0000600000
0000200000
0000100000
ENDCHAR
STARTCHAR M
ENCODING 77
SWIDTH 611 0
DWIDTH 39 0
BBX 43 37 11 -8
BITMAP
0038001E0380
00F0003F0FC0
01C0787F0FE0
038399C71FC0
038E338631C0
03F0360661C0
01806C04C180
0000580D8380
0000B00B0300
0001E01E0600
0003C03C0E00
000380380C00
000700701800
000E00F03800
001C00E03000
003801C06000
00300380E000
00600700C000
00C006018000
01800E018000
03801C030000
030038060000
060030060000
0C00600C0000
1800E0080000
3000C0180000
200180300000
600300300000
C00200200000
000000600000
000000600000
000000600000
000000600000
000000600000
000000300000
000000380000
0000001C0000
ENDCHAR
STARTCHAR N
ENCODING 78
SWIDTH 530 0
DWIDTH 34 0
BBX 52 29 9 0
BITMAP
00700010003800
01F00038007C00
03C0F8F0006710
0383B9D000C3E0
070E33B0018000
07F02630030000
01806C20060000
0000D8600E0000
0000B0600C0000
0001E040180000
0003C0C0300000
000780C0600000
00070080C00000
000E0181C00000
001C0181800000
00380103000000
00700306000000
0060020C000000
00C00618000000
01800638000000
03000430000000
07000C60000000
06000CC0000000
0C000D80000000
18000B00000000
30001F00000000
60001E00000000
C0001C00000000
C0001800000000
ENDCHAR
STARTCHAR O
ENCODING 79
SWIDTH 483 0
DWIDTH 31 0
BBX 27 29 13 0
BITMAP
0001FE00
000FFF00
003FE180
007980C0
00E38040
01C30060
03860060
070C0060
0E0C0060
0E180060
1C300060
38300060
38300040
706000C0
706000C0
E0600080
E0600180
E0200100
E0200300
C0000600
C0000400
E0000C00
E0001800
E0003000
7000E000
3801C000
3E0F0000
0FFE0000
03F00000
ENDCHAR
STARTCHAR P
ENCODING 80
SWIDTH 444 0
DWIDTH 28 0
BBX 31 29 10 0
BITMAP
00007E00
0003C3C0
00060070
001C2038
0030301C
0060700C
0060600E
00C0E1C6
0180E246
0181C446
01038806
0103100E
0307300C
030E601C
011CC018
01F08070
00019FC0
00030000
00060000
000C0000
000C0000
78180000
5C300000
DC600000
9CE00000
9DC00000
DB800000
7E000000
3C000000
ENDCHAR
STARTCHAR Q
ENCODING 81
SWIDTH 501 0
DWIDTH 32 0
BBX 27 32 13 -3
BITMAP
0001FC00
0007FF00
001E0380
007800C0
00F000C0
01C00040
03800060
07000060
0F000060
1E000060
1C000060
38000060
38000040
700000C0
700000C0
E0000180
E0000180
E0000300
E0000300
C0000600
C0000400
E0000C00
E0001800
E7F83000
7FFC6000
7C0FC000
3C078000
0FFF8000
03F1C000
0000E000
00007900
00001F80
ENDCHAR
STARTCHAR R
ENCODING 82
SWIDTH 620 0
DWIDTH 40 0
BBX 38 38 13 -9
BITMAP
0000000F80
000000FFE0
0000078070
00001C0238
000070061C
0001C00C1C
000300180C
000E00180C
003800300C
007000601C
00C000C01C
0180008038
0300018038
0600030070
0C000781E0
18000FEFC0
30001CFF00
3000398000
6000318000
6000618000
4000C10000
C001810000
C007030000
C00E030000
C018020000
C030020000
60E0020000
7380020000
1E00020000
0000020000
0000030000
0000030000
0000010000
0000010000
0000018000
0000008000
000000C000
0000004000
ENDCHAR
STARTCHAR S
ENCODING 83
SWIDTH 528 0
DWIDTH 34 0
BBX 43 29 4 0
BITMAP
000000000060
0000000000E0
0000000001E0
0000000003E0
0000000006C0
000000001CC0
000000003180
000000006180
00000000C300
000000018300
000000030600
000000060600
0000001C0C00
000000380C00
000000701800
00001FC03800
000073803000
0000C3C07000
000084C06000
000198C0C000
00013081C000
000361818000
0003C1030000
380383070000
F007800E0000
F00D801C0000
F030E0780000
70E07FE00000
3F001F800000
ENDCHAR
STARTCHAR T
ENCODING 84
SWIDTH 368 0
DWIDTH 24 0
BBX 24 29 11 0
BITMAP
000007
00F07F
01FFE3
03C001
038003
070003
070002
060006
000006
00000C
00000C
000018
000018
000030
000030
080070
3F0060
6180E0
C0C0C0
C04180
C06380
C02300
C02700
C02E00
603C00
607800
307000
1FE000
078000
ENDCHAR
STARTCHAR U
ENCODING 85
SWIDTH 472 0
DWIDTH 30 0
BBX 37 29 9 0
BITMAP
00001C0030
0000360078
003E6400F0
0003F801B0
0001800360
00030006C0
0006000DC0
000C001B80
0018003700
0030006E00
006000FC00
00C001F800
018001F000
030003E000
0600078000
0C000F0000
1C001E0000
18001C0000
3000380000
6000700100
4000E00100
C001C00200
C003C00600
C006C00C00
C00CC01800
C038C03000
E0F0606000
7FE07BC000
1F001F0000
ENDCHAR
STARTCHAR V
ENCODING 86
SWIDTH 305 0
DWIDTH 20 0
BBX 33 29 10 0
BITMAP
070001C000
0F8003E000
198007F180
18800E1F00
01801C0000
0180380000
0100300000
0300600000
0300E00000
0201C00000
0603800000
0607000000
0C0E000000
0C0E000000
0C1C000000
1838000000
1870000000
30E0000000
31C0000000
33C0000000
6380000000
6700000000
6E00000000
DC00000000
F800000000
F000000000
F000000000
E000000000
8000000000
ENDCHAR
STARTCHAR W
ENCODING 87
SWIDTH 733 0
DWIDTH 47 0
BBX 65 30 -1 0
BITMAP
000000000000002000
000000001800187000
000000007800787000
00000000E800F87000
000000019001907800
000000032003307800
000000066007607C00
0000000C400EC07E00
00000018801D806780
00000031003B00C380
000000620076008000
000000C4006C018000
0000019800F8010000
0000033001F0030000
0000036003E0060000
000006C007C0040000
00000F8007800C0000
00000F000F00180000
00001E001E00300000
00003C001C00600000
000078003000600000
0000F0007000C00000
0001E000E001800000
0006C001E003000000
000CC0036006000000
0030C006400C000000
00E0C00C6018000000
038060306070000000
7C0039E03FC0000000
E0001F000F00000000
ENDCHAR
STARTCHAR X
ENCODING 88
SWIDTH 395 0
DWIDTH 25 0
BBX 32 29 7 0
BITMAP
1E000780
3F000781
7F000EC3
F9801C6C
F0C01830
E0C03800
C0607000
0020E000
0030C000
0019C000
001B8000
000F0000
000E0000
000E0000
001E0000
001B0000
003B0000
00718000
00618000
00E0C000
01C0C000
03806000
03006000
07003000
0E003000
0C001800
1C001800
38000C00
30000C00
ENDCHAR
STARTCHAR Y
ENCODING 89
SWIDTH 400 0
DWIDTH 26 0
BBX 39 41 0 -12
BITMAP
000001E00E
000002601E
0001F44036
00001F0066
000038004C
0000700098
0000E000B0
0001C001E0
00018001C0
0003800380
0007000780
0007000F00
0007001900
0007007300
000381C200
0003FF0600
0000FC0600
0000000F80
000000FC00
0000079C00
00003C1800
0000E03000
0003803000
000E006000
003800E000
007001C000
00C0018000
0380038000
0600070000
0C000E0000
18001C0000
3000380000
3000700000
6000E00000
4001C00000
4007800000
C01E000000
403C000000
61F0000000
7FC0000000
1E00000000
ENDCHAR
STARTCHAR Z
ENCODING 90
SWIDTH 651 0
DWIDTH 42 0
BBX 37 29 11 0
BITMAP
0180000000
03E00000F8
07C00001F8
0780000398
0700000618
0380000C70
01E00FFFC0
007FFFF800
0000006000
000000C000
0000018000
0000030000
0000060000
00001C0000
0000380000
0000700000
0000E00000
0001C00000
0003800000
0007000000
000E000000
001C000000
0F38000F80
3FF00007C0
70FC0003C0
C0CF8003C0
C181F803C0
F7001F8780
7C0000FE00
ENDCHAR
STARTCHAR bracketleft
ENCODING 91
SWIDTH 245 0
DWIDTH 16 0
BBX 32 29 0 0
BITMAP
000000FF
00000180
00000300
00000600
00000C00
00001800
00003000
00003000
00006000
0000C000
00018000
00030000
00060000
000C0000
000C0000
00180000
00300000
00600000
00C00000
01800000
03000000
03000000
06000000
0C000000
18000000
30000000
60000000
40000000
FF800000
ENDCHAR
STARTCHAR backslash
ENCODING 92
SWIDTH 800 0
DWIDTH 51 0
BBX 24 28 4 0
BITMAP
C00000
600000
600000
300000
180000
0C0000
060000
030000
030000
018000
00C000
006000
003000
001800
001800
000C00
000600
000300
000180
000080
0000C0
000060
000030
000018
00000C
000004
000002
000003
ENDCHAR
STARTCHAR bracketright
ENCODING 93
SWIDTH 605 0
DWIDTH 39 0
BBX 32 29 8 0
BITMAP
000000FF
00000001
00000003
00000006
0000000C
00000018
00000030
00000060
00000040
000000C0
00000180
00000300
00000600
00000C00
00001800
00003000
00003000
00006000
0000C000
00018000
00030000
00060000
000C0000
001C0000
00180000
00300000
00600000
00C00000
FF800000
ENDCHAR
STARTCHAR asciicircum
ENCODING 94
SWIDTH 474 0
DWIDTH 30 0
BBX 9 7 17 15
BITMAP
0E00
1E00
3200
3300
6100
C180
4000
ENDCHAR
STARTCHAR underscore
ENCODING 95
SWIDTH 452 0
DWIDTH 29 0
BBX 21 2 8 0
BITMAP
3FFFF0
FFFFF8
ENDCHAR
STARTCHAR grave
ENCODING 96
SWIDTH 367 0
DWIDTH 24 0
BBX 9 5 2 13
BITMAP
C000
F000
7C00
0F00
0180
ENDCHAR
STARTCHAR a
ENCODING 97
SWIDTH 272 0
DWIDTH 17 0
BBX 23 12 6 0
BITMAP
008000
07E800
0F3C02
1C1C04
38180C
703018
603010
E06020
C0E060
E1E1C0
773F00
3C1C00
ENDCHAR
STARTCHAR b
ENCODING 98
SWIDTH 277 0
DWIDTH 18 0
BBX 23 29 7 0
BITMAP
00000C
00001E
000064
0000C4
000188
000308
000610
000C20
001840
003880
007180
00E300
00C600
018C00
031800
072000
0E4000
0D8000
1F0000
3E1004
3C3808
702E30
6067E0
C04000
C0C000
C18000
C30000
FE0000
7C0000
ENDCHAR
STARTCHAR c
ENCODING 99
SWIDTH 230 0
DWIDTH 15 0
BBX 19 12 7 0
BITMAP
018000
0FC000
3C6020
782040
6020C0
E00080
C00100
C00300
C00E00
C01800
79F000
1F8000
ENDCHAR
STARTCHAR d
ENCODING 100
SWIDTH 275 0
DWIDTH 18 0
BBX 31 29 7 0
BITMAP
0000000E
0000001E
00000036
000000E4
000001CC
00000308
00000610
00000C20
00001C40
000038C0
00003180
00006300
0000C600
00018C00
00019800
00032000
00064000
018E8000
07CF0000
1E3E0200
38380400
70300C00
60301800
E0603000
C0606000
C0E0C000
E3E38000
7F7E0000
3C180000
ENDCHAR
STARTCHAR e
ENCODING 101
SWIDTH 230 0
DWIDTH 15 0
BBX 19 12 7 0
BITMAP
010000
0FC000
1EC020
30C040
61C0C0
E38180
EF0300
FC0600
F01C00
603000
7FE000
1F0000
ENDCHAR
STARTCHAR f
ENCODING 102
SWIDTH 215 0
DWIDTH 14 0
BBX 50 57 -20 -28
BITMAP
000000000001C0
000000000003C0
00000000000740
00000000000E40
00000000001C80
00000000003880
00000000003100
00000000006300
0000000000C200
00000000018400
00000000030C00
00000000061800
000000000E1000
000000001C2000
00000000384000
00000000718000
00000000E30000
00000001C60000
00000003D80000
00000003B00800
00000007C01000
0000000F802000
0000001E004000
0000003C018000
0000007C030000
000000FC060000
000001FC1C0000
000003EE700000
000007E3E00000
00000E40000000
00000CC0000000
00001880000000
00003900000000
00007300000000
0000E200000000
0001C600000000
00038C00000000
00070800000000
000E1800000000
001C3000000000
00382000000000
00304000000000
0070C000000000
00E18000000000
01C10000000000
03820000000000
07060000000000
070C0000000000
0E180000000000
1C300000000000
18600000000000
38C00000000000
71800000000000
63000000000000
E6000000000000
FC000000000000
70000000000000
ENDCHAR
STARTCHAR g
ENCODING 103
SWIDTH 280 0
DWIDTH 18 0
BBX 40 40 -10 -28
BITMAP
000000C000
000003EC00
00000F3E01
00001C1C02
0000381806
000070180C
0000603018
0000606030
000060E060
000061F1C0
00007FBF00
00003F1E00
0000030000
0000060000
00000E0000
00000C0000
00001B0000
00007C0000
0000F00000
0001F00000
0002E00000
000CC00000
0019C00000
0033800000
0063000000
0047000000
008E000000
010C000000
0218000000
0638000000
0C70000000
0860000000
10C0000000
2180000000
2300000000
4600000000
CE00000000
9800000000
F000000000
E000000000
ENDCHAR
STARTCHAR h
ENCODING 104
SWIDTH 322 0
DWIDTH 21 0
BBX 26 29 6 0
BITMAP
00000700
00001F00
00003300
00006200
0000C400
00018C00
00070800
000E1000
001C2000
00384000
00308000
00610000
00C20000
01C40000
01880000
03100000
06600000
06C70000
0F9F8000
1E3B8040
1C730080
38E30180
39860300
73060600
760C0C00
FC0C1800
F80C3000
F00FE000
C0078000
ENDCHAR
STARTCHAR i
ENCODING 105
SWIDTH 150 0
DWIDTH 10 0
BBX 15 18 6 0
BITMAP
0030
0030
0000
0000
0000
0000
0600
0600
0E02
1C06
3804
3008
7010
6020
E040
C180
6700
3C00
ENDCHAR
STARTCHAR j
ENCODING 106
SWIDTH 158 0
DWIDTH 10 0
BBX 41 46 -20 -28
BITMAP
000000000C00
000000001800
000000000000
000000000000
000000000000
000000000000
000000008000
000000018000
000000038000
000000070180
000000060300
0000000C0600
0000001C0800
000000383000
00000030C000
000000738000
000000EE0000
000000F80000
000001E00000
000007800000
00000F000000
00001B000000
000026000000
0000CE000000
00018C000000
000318000000
000638000000
000C70000000
001860000000
0010E0000000
0021C0000000
004180000000
008380000000
018700000000
030E00000000
021C00000000
043800000000
0C3800000000
087000000000
10E000000000
31C000000000
238000000000
670000000000
4E0000000000
FC0000000000
700000000000
ENDCHAR
STARTCHAR k
ENCODING 107
SWIDTH 200 0
DWIDTH 13 0
BBX 25 28 4 0
BITMAP
00000380
00000680
00000C80
00001900
00007200
0000E400
0001CC00
00038800
00073000
00066000
000CC000
00198000
00330000
00660000
00780000
00F00000
01E00000
03FE0000
03E60800
078C1000
0E383000
0FE06000
1C00C000
3E018000
73030000
63060000
C1FC0000
C0F00000
ENDCHAR
STARTCHAR l
ENCODING 108
SWIDTH 180 0
DWIDTH 12 0
BBX 24 29 7 0
BITMAP
000006
00001F
000032
000062
0000C4
000188
000318
000610
000C20
001840
003080
006100
00E200
01C400
018800
031000
076000
0EC000
0F8000
1E0180
3C0300
380600
700C00
601800
E03000
C06000
C1C000
670000
3E0000
ENDCHAR
STARTCHAR m
ENCODING 109
SWIDTH 453 0
DWIDTH 29 0
BBX 36 12 5 0
BITMAP
0100008000
031F03E000
063B07E030
0E730C4020
1CC638C040
198670C080
330EE18100
7E1D818200
7C1F030C00
F83E031800
E03C03F000
C03801E000
ENDCHAR
STARTCHAR n
ENCODING 110
SWIDTH 301 0
DWIDTH 19 0
BBX 25 12 5 0
BITMAP
01020000
030F8000
07198000
0E710080
1CE30100
19C30200
3B860600
76060C00
6C0C1800
F80C3000
F006E000
E007C000
ENDCHAR
STARTCHAR o
ENCODING 111
SWIDTH 241 0
DWIDTH 15 0
BBX 20 14 7 0
BITMAP
020000
0F0000
0FC000
0FF000
3E3830
383FE0
702000
E02000
C06000
C0C000
C18000
C30000
EE0000
780000
ENDCHAR
STARTCHAR p
ENCODING 112
SWIDTH 245 0
DWIDTH 16 0
BBX 42 41 -15 -29
BITMAP
000000670000
0000007F8000
000000F1C040
000001C0C080
00000180C180
00000301C300
000007018600
000006039C00
00000E077000
00001F1FC000
00001BFF0000
000038F80000
000070000000
0000D0000000
0000B0000000
0001A0000000
000320000000
000660000000
000640000000
000CC0000000
001880000000
001880000000
003180000000
006100000000
006300000000
00C200000000
018600000000
018400000000
030800000000
061800000000
061000000000
0C3000000000
186000000000
184000000000
30C000000000
318000000000
630000000000
660000000000
EC0000000000
F80000000000
700000000000
ENDCHAR
STARTCHAR q
ENCODING 113
SWIDTH 279 0
DWIDTH 18 0
BBX 33 39 -5 -28
BITMAP
0000FD0000
0001E78080
0003838080
0007070100
000E060300
000C060200
00180C0400
00181C0800
00183C3000
000FFFE000
0007F7C000
0000D00000
0000A00000
0001200000
0003600000
0006400000
0004400000
000CC00000
0018800000
0011800000
0031000000
0063000000
00C2000000
00C6000000
0184000000
030C000000
0308000000
0618000000
0E10000000
0C20000000
1860000000
1840000000
3080000000
7180000000
6300000000
6600000000
EC00000000
F800000000
6000000000
ENDCHAR
STARTCHAR r
ENCODING 114
SWIDTH 235 0
DWIDTH 15 0
BBX 18 13 9 0
BITMAP
200000
600000
FF8000
7E00C0
0C0080
180100
300200
600400
600800
601000
606000
71C000
1F0000
ENDCHAR
STARTCHAR s
ENCODING 115
SWIDTH 191 0
DWIDTH 12 0
BBX 18 12 5 0
BITMAP
010000
038000
068000
0EC000
1C40C0
384080
304180
60C300
E0C600
E18C00
7F7800
3FC000
ENDCHAR
STARTCHAR t
ENCODING 116
SWIDTH 193 0
DWIDTH 12 0
BBX 53 29 2 0
BITMAP
00000060000000
000001E0000000
000003C0000000
000007C0000000
00000F80000000
00001B00000000
00003700000038
000066000001E0
01FCEC00000F00
0787FF8007F000
0F01B9FFFC0000
3E037000000000
7C06E000000000
780D8000000000
F00F0000000000
401E0000000000
003C0000000000
00780000000000
00700000000000
00E00400000000
01C00800000000
01801000000000
03002000000000
03004000000000
03008000000000
03030000000000
03060000000000
03BC0000000000
01F00000000000
ENDCHAR
STARTCHAR u
ENCODING 117
SWIDTH 279 0
DWIDTH 18 0
BBX 22 12 7 0
BITMAP
080600
1C0600
180C04
301C04
703808
603010
E07030
C0E060
C1E0C0
C36180
FE7700
783C00
ENDCHAR
STARTCHAR v
ENCODING 118
SWIDTH 297 0
DWIDTH 19 0
BBX 21 12 10 0
BITMAP
300000
781F08
C83BF0
9860E0
18C000
318000
730000
660000
FC0000
F80000
F00000
C00000
ENDCHAR
STARTCHAR w
ENCODING 119
SWIDTH 387 0
DWIDTH 25 0
BBX 30 12 7 0
BITMAP
0C060000
1C0E1C00
180C1C04
30181808
70381C30
603017C0
E0702000
C0E06000
C1E04000
C3608000
F67B8000
7C3E0000
ENDCHAR
STARTCHAR x
ENCODING 120
SWIDTH 279 0
DWIDTH 18 0
BBX 21 12 9 0
BITMAP
300C00
7C1C08
F43610
E663E0
C3C180
018000
038000
078000
0EC000
1C4000
386000
302000
ENDCHAR
STARTCHAR y
ENCODING 121
SWIDTH 283 0
DWIDTH 18 0
BBX 38 40 -8 -28
BITMAP
0000100000
0000380E00
0000301C04
0000601808
0000E03818
0000C07030
0001C0E060
000180E080
000181C100
0001838600
0001CD8C00
0000FB1800
0000073000
0000066000
00000DC000
00001F0000
00003E0000
00007C0000
0000F00000
0001E00000
0006E00000
000CC00000
0019800000
0033800000
0063000000
00C6000000
018E000000
010C000000
0218000000
0430000000
0C70000000
0860000000
10C0000000
2180000000
6300000000
4600000000
CC00000000
9800000000
F000000000
E000000000
ENDCHAR
STARTCHAR z
ENCODING 122
SWIDTH 229 0
DWIDTH 15 0
BBX 35 40 -10 -29
BITMAP
000007E000
00001E3000
0000383020
0000387020
000000E040
000001C080
000007E180
00001E6300
0000186600
000000EC00
000001D800
000001A000
000003C000
0000070000
00000E0000
00001C0000
00002C0000
0000580000
0000900000
0001300000
0002600000
0004C00000
0008C00000
0011800000
0023000000
0043000000
0086000000
010C000000
021C000000
0638000000
0430000000
0860000000
10C0000000
1180000000
2380000000
4700000000
4E00000000
D800000000
F000000000
6000000000
ENDCHAR
STARTCHAR braceleft
ENCODING 123
SWIDTH 191 0
DWIDTH 12 0
BBX 29 38 4 -6
BITMAP
00000008
00000038
000001E0
00000380
00000E00
00001800
00007000
0000C000
00018000
00030000
00060000
000C0000
00380000
01F00000
03800000
03000000
03000000
03000000
03000000
06000000
06000000
0C000000
0C000000
18000000
18000000
10000000
30000000
20000000
60000000
60000000
40000000
40000000
C0000000
C0000000
80000000
80000000
80000000
80000000
ENDCHAR
STARTCHAR bar
ENCODING 124
SWIDTH 386 0
DWIDTH 25 0
BBX 2 29 21 0
BITMAP
C0
C0
C0
C0
C0
C0
C0
C0
C0
C0
C0
C0
C0
C0
C0
C0
C0
C0
C0
C0
C0
C0
C0
C0
C0
C0
C0
C0
C0
ENDCHAR
STARTCHAR braceright
ENCODING 125
SWIDTH 422 0
DWIDTH 27 0
BBX 28 38 4 -6
BITMAP
00000010
00000010
00000010
00000010
00000030
00000030
00000020
00000020
00000060
00000060
00000040
000000C0
000000C0
00000080
00000180
00000100
00000300
00000200
00000600
00000400
00000400
00000400
00000400
00001C00
00007800
0000C000
00018000
00030000
00060000
001C0000
00380000
00600000
01C00000
03800000
0E000000
38000000
F0000000
80000000
ENDCHAR
STARTCHAR asciitilde
ENCODING 126
SWIDTH 367 0
DWIDTH 24 0
BBX 8 3 2 5
BITMAP
60
99
0F
ENDCHAR
STARTCHAR exclamdown
ENCODING 161
SWIDTH 482 0
DWIDTH 31 0
BBX 26 29 -2 -18
BITMAP
000000C0
00000180
00000000
00000000
00000000
00000C00
00001800
00003000
00006000
0000E000
0001C000
00038000
00070000
000E0000
001C0000
003C0000
00780000
00700000
00E00000
01C00000
03800000
07000000
0E000000
1E000000
3C000000
78000000
F0000000
E0000000
40000000
ENDCHAR
STARTCHAR cent
ENCODING 162
SWIDTH 532 0
DWIDTH 34 0
BBX 12 14 4 -1
BITMAP
0020
01E0
0FE0
38A0
7130
6320
C600
CC00
C800
D810
F030
78E0
5F80
8000
ENDCHAR
STARTCHAR sterling
ENCODING 163
SWIDTH 394 0
DWIDTH 25 0
BBX 19 29 0 0
BITMAP
007E00
01FF80
03FFC0
0781C0
0700E0
0600E0
0E0060
0E0060
0E00E0
0600C0
0600C0
060180
060380
060300
060000
0E0000
FFF800
0C0000
1C0000
1C0000
180000
380000
300000
700000
600000
600000
FE0400
FFFC00
80F800
ENDCHAR
STARTCHAR currency
ENCODING 164
SWIDTH 800 0
DWIDTH 51 0
BBX 16 16 7 0
BITMAP
4100
EFF7
FE7F
780E
7006
E006
C002
C002
C002
C002
C002
6006
700C
F81E
FFFF
E7C6
ENDCHAR
STARTCHAR yen
ENCODING 165
SWIDTH 624 0
DWIDTH 40 0
BBX 39 41 -5 -12
BITMAP
000001C004
000003401E
0003844032
00007F8066
00001800CC
0000300098
0000E00090
0000C001E0
00018001C0
0003000380
003F0007F8
0006000F00
0006001F00
0006007300
000700E200
0003C78600
0003FE0600
007FFFFFF8
01FFFFFFF8
000007D800
00001E1800
0000F03000
0003C03000
000F006000
001C00C000
007001C000
00C0018000
0380030000
0700070000
0C000E0000
18001C0000
3000380000
2000700000
6000E00000
4001C00000
C007800000
C00F000000
C03C000000
E0F8000000
7FE0000000
3F00000000
ENDCHAR
STARTCHAR brokenbar
ENCODING 166
SWIDTH 379 0
DWIDTH 24 0
BBX 1 29 19 0
BITMAP
80
80
80
80
80
80
80
80
80
80
80
80
00
00
00
00
00
80
80
80
80
80
80
80
80
80
80
80
80
ENDCHAR
STARTCHAR section
ENCODING 167
SWIDTH 923 0
DWIDTH 59 0
BBX 24 29 14 0
BITMAP
000020
0001FC
00038E
000307
000603
000603
000600
000700
000300
007F00
00FF80
01C180
0180C0
0180C0
0300C0
0380C0
0180C0
01C1C0
00FF80
00FF00
006000
006000
806000
C06000
C06000
E0E000
71C000
3F8000
0F0000
ENDCHAR
STARTCHAR dieresis
ENCODING 168
SWIDTH 367 0
DWIDTH 24 0
BBX 6 3 2 15
BITMAP
44
CC
84
ENDCHAR
STARTCHAR copyright
ENCODING 169
SWIDTH 685 0
DWIDTH 44 0
BBX 26 25 15 0
BITMAP
007F8000
01FFF000
07C07800
0F000C00
1E000600
3C000300
38000100
700F8180
703CC080
60704080
E0E040C0
E1C000C0
E18000C0
E18000C0
61800CC0
61803880
61C0E080
707F8180
30000100
18000300
1C000600
0F001C00
07C07800
01FFE000
007F8000
ENDCHAR
STARTCHAR ordfeminine
ENCODING 170
SWIDTH 802 0
DWIDTH 51 0
BBX 9 8 15 19
BITMAP
1F80
7180
E100
C300
8200
8600
FB80
6080
ENDCHAR
STARTCHAR guillemotleft
ENCODING 171
SWIDTH 380 0
DWIDTH 24 0
BBX 10 8 14 2
BITMAP
1040
39C0
7380
C700
C300
6380
38C0
1840
ENDCHAR
STARTCHAR logicalnot
ENCODING 172
SWIDTH 438 0
DWIDTH 28 0
BBX 10 4 18 7
BITMAP
FFC0
FFC0
0180
0100
ENDCHAR
STARTCHAR registered
ENCODING 174
SWIDTH 648 0
DWIDTH 42 0
BBX 25 25 16 0
BITMAP
00FF8000
03FFE000
07807800
1F001C00
1C000600
38000200
7803F300
701CB100
60311180
E0E33080
E1863080
E30FE080
E21B0080
E63B0080
E4720080
E6C20080
63820180
70020100
30020300
38020600
1C010C00
0E003800
07C0F000
01FFC000
007F0000
ENDCHAR
STARTCHAR macron
ENCODING 175
SWIDTH 583 0
DWIDTH 37 0
BBX 10 2 14 24
BITMAP
FFC0
FFC0
ENDCHAR
STARTCHAR degree
ENCODING 176
SWIDTH 538 0
DWIDTH 35 0
BBX 3 3 7 15
BITMAP
E0
20
A0
ENDCHAR
STARTCHAR plusminus
ENCODING 177
SWIDTH 361 0
DWIDTH 23 0
BBX 17 15 3 2
BITMAP
000C00
001800
003800
007000
00E000
7FFF80
01C000
038000
070000
060000
0C0000
000000
000000
7FE000
FFE000
ENDCHAR
STARTCHAR acute
ENCODING 180
SWIDTH 367 0
DWIDTH 24 0
BBX 9 4 2 14
BITMAP
0380
0F80
3E00
E000
ENDCHAR
STARTCHAR paragraph
ENCODING 182
SWIDTH 292 0
DWIDTH 19 0
BBX 21 22 2 0
BITMAP
000780
007FF8
01E0D8
038190
070330
060660
060CC0
071980
071300
03F600
01FE00
00FC00
019800
033000
066000
0EC000
0D8000
1B0000
330000
660000
CC0000
880000
ENDCHAR
STARTCHAR periodcentered
ENCODING 183
SWIDTH 367 0
DWIDTH 24 0
BBX 3 4 5 8
BITMAP
40
E0
E0
40
ENDCHAR
STARTCHAR cedilla
ENCODING 184
SWIDTH 367 0
DWIDTH 24 0
BBX 5 7 5 -7
BITMAP
80
E0
F0
18
18
B8
F0
ENDCHAR
STARTCHAR ordmasculine
ENCODING 186
SWIDTH 747 0
DWIDTH 48 0
BBX 8 8 14 20
BITMAP
1C
1E
31
61
C0
C2
84
D8
ENDCHAR
STARTCHAR guillemotright
ENCODING 187
SWIDTH 704 0
DWIDTH 45 0
BBX 10 8 12 2
BITMAP
8400
C600
6380
31C0
30C0
7380
E700
8600
ENDCHAR
STARTCHAR onequarter
ENCODING 188
SWIDTH 367 0
DWIDTH 24 0
BBX 20 18 0 0
BITMAP
000300
000600
020C00
040800
081000
103000
206010
40C010
418020
830040
020080
040D00
0C1A00
181FC0
300400
600800
401000
802000
ENDCHAR
STARTCHAR onehalf
ENCODING 189
SWIDTH 367 0
DWIDTH 24 0
BBX 16 18 1 0
BITMAP
0002
0106
020C
0408
0810
1030
2060
40C0
4180
8308
020E
0411
0C02
1804
3008
6010
402C
8043
ENDCHAR
STARTCHAR threequarters
ENCODING 190
SWIDTH 367 0
DWIDTH 24 0
BBX 19 18 0 0
BITMAP
000100
080200
0C0400
040C00
081800
C43000
C06020
C84040
708040
018080
030100
063200
0C3400
187D80
101000
200000
602000
404000
ENDCHAR
STARTCHAR questiondown
ENCODING 191
SWIDTH 628 0
DWIDTH 40 0
BBX 19 28 1 -17
BITMAP
000060
000060
000000
000000
000100
000300
000700
000600
000C00
001800
003000
007000
00E000
03C000
0F0000
1E0000
3C0000
780000
F00000
E00000
E00400
E00C00
E00C00
E01800
703800
7CF000
3FE000
0F8000
ENDCHAR
STARTCHAR Agrave
ENCODING 192
SWIDTH 247 0
DWIDTH 16 0
BBX 46 47 -10 -12
BITMAP
000000000600
000000000780
0000000003E0
000000000078
00000000000C
000000000000
000000000010
000000000078
0000000000F8
000000000190
0000000003A0
000000000360
0000000006C0
000000000D80
000000001B00
000000003E00
000000003C00
000000007000
00000000E000
00000001C000
000000038000
000000070000
0000000F0000
0000003E0000
000000EC0000
0000019C0000
000307180000
0000DC300000
000038700000
0000E6600000
F00381C00000
E00E00E00000
E03801900000
E1C003000000
3E0003000000
000006000000
000006000000
00000C000000
00000C000000
000018000000
000018000000
000030000000
000030000000
000060000000
000060000000
0000C0000000
0000C0000000
ENDCHAR
STARTCHAR Aacute
ENCODING 193
SWIDTH 257 0
DWIDTH 16 0
BBX 47 46 -10 -12
BITMAP
000000000006
00000000001E
0000000000FC
0000000003C0
000000000600
000000000010
000000000078
0000000000F8
000000000190
0000000003A0
000000000360
0000000006C0
000000000D80
000000001B00
000000003E00
000000003C00
000000007000
00000000E000
00000001C000
000000038000
000000070000
0000000F0000
0000003E0000
000000EC0000
0000019C0000
000307180000
0000DC300000
000038700000
0000E6600000
F00381C00000
E00E00E00000
E03801900000
E1C003000000
3E0003000000
000006000000
000006000000
00000C000000
00000C000000
000018000000
000018000000
000030000000
000030000000
000060000000
000060000000
0000C0000000
0000C0000000
ENDCHAR
STARTCHAR Acircumflex
ENCODING 194
SWIDTH 276 0
DWIDTH 18 0
BBX 47 47 -10 -12
BITMAP
000000000010
000000000038
00000000006C
0000000000C6
000000000082
000000000000
000000000010
000000000078
0000000000F8
000000000190
0000000003A0
000000000360
0000000006C0
000000000D80
000000001B00
000000003E00
000000003C00
000000007000
00000000E000
00000001C000
000000038000
000000070000
0000000F0000
0000003E0000
000000EC0000
0000019C0000
000307180000
0000DC300000
000038700000
0000E6600000
F00381C00000
E00E00E00000
E03801900000
E1C003000000
3E0003000000
000006000000
000006000000
00000C000000
00000C000000
000018000000
000018000000
000030000000
000030000000
000060000000
000060000000
0000C0000000
0000C0000000
ENDCHAR
STARTCHAR Atilde
ENCODING 195
SWIDTH 455 0
DWIDTH 29 0
BBX 49 45 2 -12
BITMAP
00000000003000
00000000004C80
00000000000780
00000000000000
00000000001000
00000000007800
0000000000F800
0000000001D000
0000000001B000
00000000036000
0000000006C000
000000000C8000
000000001B0000
000000001E0000
000000003C0000
00000000780000
00000000E00000
00000000C00000
00000003800000
00000007800000
0000000F000000
0000003E000000
0000006C000000
000001CC000000
00030718000000
0000FE30000000
00003870000000
0000E660000000
700381E0000000
F00E00F0000000
E0380180000000
71C00180000000
3E000300000000
00000200000000
00000600000000
00000400000000
00000C00000000
00001800000000
00001800000000
00003000000000
00003000000000
00006000000000
00006000000000
00004000000000
0000C000000000
ENDCHAR
STARTCHAR Adieresis
ENCODING 196
SWIDTH 367 0
DWIDTH 24 0
BBX 47 45 -10 -12
BITMAP
000000000022
000000000066
000000000042
000000000000
000000000010
000000000078
0000000000F8
000000000190
0000000003A0
000000000360
0000000006C0
000000000D80
000000001B00
000000003E00
000000003C00
000000007000
00000000E000
00000001C000
000000038000
000000070000
0000000F0000
0000003E0000
000000EC0000
0000019C0000
000307180000
0000DC300000
000038700000
0000E6600000
F00381C00000
E00E00E00000
E03801900000
E1C003000000
3E0003000000
000006000000
000006000000
00000C000000
00000C000000
000018000000
000018000000
000030000000
000030000000
000060000000
000060000000
0000C0000000
0000C0000000
ENDCHAR
STARTCHAR Aring
ENCODING 197
SWIDTH 367 0
DWIDTH 24 0
BBX 47 44 -10 -12
BITMAP
00000000000C
00000000000E
00000000000E
000000000014
000000000078
0000000000F8
000000000190
000000000320
000000000360
0000000006C0
000000000D80
000000001B00
000000003E00
000000003C00
000000007000
00000000E000
00000001C000
000000038000
000000070000
0000000F0000
0000003E0000
000000EC0000
0000019C0000
000307180000
0000DC300000
000078700000
0000E6E00000
F00381C00000
E00E01E00000
E07801900000
E1C003000000
3E0003000000
000006000000
000006000000
00000C000000
00000C000000
000018000000
000018000000
000030000000
000030000000
000060000000
000060000000
0000C0000000
0000C0000000
ENDCHAR
STARTCHAR AE
ENCODING 198
SWIDTH 556 0
DWIDTH 36 0
BBX 54 41 -7 -12
BITMAP
00000000001000
00000000007800
0000000000F800
0000000000D000
0000000001B000
00000000036000
00000000064000
000000000C8000
000000001BF980
000000001FCF80
000000003E0380
000000007C0380
00000000EC0000
00000000CC0000
000000038C0000
00000007870000
0000000F1F0000
0000003E700000
0000006FC00000
000001CF800004
0003071E000008
0000EE3C000018
00003878078010
0000E6701CC030
700381F0306020
F00E00F0606040
E03801E0C06040
71C001C1804080
3F0003C180C100
000003C180C600
000007C1818C00
000005C1837800
00000CE0FFE000
000008E07C0000
00001870700000
0000103FC00000
00003000000000
00002000000000
00006000000000
00004000000000
0000C000000000
ENDCHAR
STARTCHAR Ccedilla
ENCODING 199
SWIDTH 432 0
DWIDTH 28 0
BBX 26 36 13 -7
BITMAP
0001F800
00060C00
00180600
00700600
00C00E00
01801F00
03003300
07007300
0E00E200
1C00C200
18018200
38030600
70030400
70060C00
E0060C00
E00E1800
C00C3000
C00E6000
C007C000
C0078040
C0000080
C0000100
C0000200
E0000400
60001800
70003000
3800E000
1F0F8000
03FC0000
00C00000
00F80000
00080000
000C0000
00080000
00F80000
00200000
ENDCHAR
STARTCHAR Egrave
ENCODING 200
SWIDTH 230 0
DWIDTH 15 0
BBX 26 35 0 0
BITMAP
00020000
00078000
0007E000
0000F800
00001E00
00000000
00007180
0001FD80
00038780
000603C0
000C0180
000C0000
000C0000
00060000
000F8000
003E0000
00F00000
01C00000
07000000
0E000000
1C000000
380FC000
78186000
70302000
E0602000
E0C06040
E0C060C0
E1C04180
C1C0C600
E0C19C00
E0E7F000
E07F8000
70380000
38F00000
0F800000
ENDCHAR
STARTCHAR Eacute
ENCODING 201
SWIDTH 346 0
DWIDTH 22 0
BBX 27 35 7 0
BITMAP
00000100
00000780
00001F80
00007C00
0001E000
00010000
00007880
0001FF80
00038380
000603C0
000E0180
000C0000
000C0000
00060000
00078000
003F0000
00F00000
01C00000
03800000
0E000000
1C000000
3C0FC000
38186000
70302000
70602000
E0C02020
E0C060C0
E0C04180
E0C0C300
E0C18C00
E0E3F800
607FC000
701C0000
3C700000
0FC00000
ENDCHAR
STARTCHAR Ecircumflex
ENCODING 202
SWIDTH 343 0
DWIDTH 22 0
BBX 27 34 7 0
BITMAP
00000300
00000780
00000CC0
00000840
00000000
00007080
0001FD80
00038780
000603C0
000E0180
000C0000
000C0000
00060000
000F8000
003F0000
00F00000
01C00000
07800000
0E000000
1C000000
3C0FC000
38186000
70302000
70602000
E0C02020
E0C060C0
E0C04180
E0C0C300
E0C18C00
E0E3F800
E07FC000
701C0000
38700000
0FC00000
ENDCHAR
STARTCHAR Edieresis
ENCODING 203
SWIDTH 353 0
DWIDTH 23 0
BBX 27 32 7 0
BITMAP
00003180
00003100
00000000
00007080
0001FFC0
000383C0
000603C0
000E0180
000C0000
000C0000
00060000
00078000
003F8000
00700000
01C00000
03800000
0F000000
1E000000
3C0FC000
38186000
70302000
70602000
E0C02020
E0C06040
E0C06180
E0C0C300
E0C08C00
E0E3F800
607FC000
701C0000
38700000
0FC00000
ENDCHAR
STARTCHAR Igrave
ENCODING 204
SWIDTH 324 0
DWIDTH 21 0
BBX 29 36 -2 0
BITMAP
00000800
00000E00
00000F80
000003E0
00000078
00000008
00000000
00000060
000001E0
000003A0
00000720
00000E60
00001C40
000018C0
00003880
00003180
00007100
00007300
00006200
00006400
00006C00
00016800
0007F800
000C7800
00087C00
00187C00
0010C800
00118000
00030000
00060000
7C0C0000
78180000
F0700000
70E00000
77800000
3E000000
ENDCHAR
STARTCHAR Iacute
ENCODING 205
SWIDTH 367 0
DWIDTH 24 0
BBX 29 36 1 0
BITMAP
00000018
00000078
000001F0
00000780
00001C00
00000000
00000000
00000040
000001E0
000003A0
00000720
00000E60
00001C40
000038C0
00003880
00003180
00007100
00006300
00006200
00006400
00006C00
00006800
0007F800
000C7800
00187800
00107C00
0010D800
00118000
00030000
00060000
780C0000
F0380000
F0700000
E1E00000
77800000
3E000000
ENDCHAR
STARTCHAR Icircumflex
ENCODING 206
SWIDTH 367 0
DWIDTH 24 0
BBX 29 35 2 0
BITMAP
00000040
000000E0
000001B0
00000338
00000618
00000000
00000040
000001E0
00000760
00000E60
00001C40
000018C0
00003880
00003180
00007100
00006300
00006200
00006600
00006400
00006800
00037800
000FF000
00087000
00187800
0010F800
00119800
00130000
00070000
000E0000
781C0000
F0380000
E0600000
E1C00000
77800000
3E000000
ENDCHAR
STARTCHAR Idieresis
ENCODING 207
SWIDTH 367 0
DWIDTH 24 0
BBX 30 33 1 0
BITMAP
000000CC
0000018C
00000000
00000000
00000060
000001E0
000003A0
00000720
00000E20
00001C40
00001840
000038C0
00003180
00003100
00007300
00006200
00006600
00006400
00012800
0007F800
000C3800
00083C00
00187C00
0010C800
00118000
00030000
00060000
7C0C0000
78180000
F0700000
70E00000
73800000
3E000000
ENDCHAR
STARTCHAR Eth
ENCODING 208
SWIDTH 513 0
DWIDTH 33 0
BBX 38 29 4 0
BITMAP
00000000E0
00000003F0
0000000738
0000000C18
000000181C
000000300C
000000601C
000000C01C
0000008018
0C00018018
1800010018
3000030018
6000020038
6000060038
C1FFFFF030
C007840070
C0190C0070
E0720C00E0
7FC60C00E0
1E0C0C01C0
00180C01C0
007E0C0380
01B7040700
0323060E00
0641821E00
0CC1C03C00
0980F0F800
1B007FF000
1E001FC000
ENDCHAR
STARTCHAR Ntilde
ENCODING 209
SWIDTH 367 0
DWIDTH 24 0
BBX 52 33 9 0
BITMAP
00000001C00000
00000001320000
000000001E0000
00000000000000
00700010003800
01F00038007C00
03C0F8F0006710
0383B9D000C3E0
070E33B0018000
07F02630030000
01806C20060000
0000D8600E0000
0000B0600C0000
0001E040180000
0003C0C0300000
000780C0600000
00070080C00000
000E0181C00000
001C0181800000
00380103000000
00700306000000
0060020C000000
00C00618000000
01800638000000
03000430000000
07000C60000000
06000CC0000000
0C000D80000000
18000B00000000
30001F00000000
60001E00000000
C0001C00000000
C0001800000000
ENDCHAR
STARTCHAR Ograve
ENCODING 210
SWIDTH 367 0
DWIDTH 24 0
BBX 27 35 -2 0
BITMAP
0000C000
0000F000
00007C00
00001F00
000003C0
00000000
0003FE00
000FFF00
003FE180
007980C0
00E30040
01C70060
03860060
070C0060
0E0C0060
1E180060
1C300060
38300060
383000C0
706000C0
706000C0
E0600180
E0600180
E0600300
E0200300
C0000600
C0000C00
C0000C00
E0001800
E0003000
7000E000
7801C000
3C0F0000
0FFE0000
03F00000
ENDCHAR
STARTCHAR Oacute
ENCODING 211
SWIDTH 367 0
DWIDTH 24 0
BBX 27 36 -2 0
BITMAP
00000200
00000E00
00003E00
0001F000
00038000
00000000
00000000
0003FE00
000FFF00
003FE180
007980C0
00E30040
01C70060
03860060
070C0060
0E0C0060
1E180060
1C300060
38300060
383000C0
706000C0
706000C0
E0600180
E0600180
E0600300
E0200300
C0000600
C0000C00
C0000C00
E0001800
E0003000
7000E000
7801C000
3C0F0000
0FFE0000
03F00000
ENDCHAR
STARTCHAR Ocircumflex
ENCODING 212
SWIDTH 367 0
DWIDTH 24 0
BBX 27 34 -2 0
BITMAP
00003800
00006800
0000C400
00008000
00000000
0001FE00
000FFF00
003FE180
007980C0
00E30040
01C70040
03860060
070C0060
0E1C0060
1E180060
1C300060
38300060
383000C0
706000C0
706000C0
E0600180
E0600180
E0600300
C0200300
C0000600
C0000C00
C0000C00
E0001800
E0003000
7000E000
7801C000
3C0F0000
0FFE0000
03F00000
ENDCHAR
STARTCHAR Otilde
ENCODING 213
SWIDTH 367 0
DWIDTH 24 0
BBX 27 34 -2 0
BITMAP
0000F000
00009900
00000E00
00000000
00000000
0003FE00
000FFF00
003FE180
007980C0
00E30040
01C70060
03860060
070C0060
0E0C0060
1E180060
1C300060
38300060
383000C0
706000C0
706000C0
E0600180
E0600180
E0600300
E0200300
C0000600
C0000C00
C0000C00
E0001800
E0003000
7000E000
7801C000
3C0F0000
0FFE0000
03F00000
ENDCHAR
STARTCHAR Odieresis
ENCODING 214
SWIDTH 367 0
DWIDTH 24 0
BBX 27 33 -2 0
BITMAP
00006600
0000C600
00000000
00000000
0001FE00
000FFF00
001FE180
007980C0
00E38040
01C30060
03860060
070C0060
0E0C0060
1E180060
1C300060
38300060
38300040
706000C0
706000C0
E0600180
E0600180
E0600300
E0200300
C0000600
C0000400
C0000C00
E0001800
E0003000
70006000
7801C000
3C070000
0FFE0000
03F00000
ENDCHAR
STARTCHAR multiply
ENCODING 215
SWIDTH 302 0
DWIDTH 19 0
BBX 9 12 5 3
BITMAP
3080
1180
1B00
1E00
1C00
0C00
1C00
3C00
2C00
6400
C600
8600
ENDCHAR
STARTCHAR Oslash
ENCODING 216
SWIDTH 516 0
DWIDTH 33 0
BBX 30 29 12 0
BITMAP
0000FF04
0007FF8C
001FE0D8
003CC070
007180E0
00E301F0
01C70330
03860630
070C0C30
070C1830
0E183030
1C106030
1C30C020
38318060
38330060
703600C0
701C00C0
70380080
70600180
60C00300
61800200
73000600
76000C00
7C001800
38007000
3C00E000
7E078000
C7FF0000
81F80000
ENDCHAR
STARTCHAR Ugrave
ENCODING 217
SWIDTH 933 0
DWIDTH 60 0
BBX 36 34 8 0
BITMAP
00000E0000
00000F8000
000003E000
0000007800
0000000C00
00001C0030
0000260070
003E4400F0
0003F803B0
0003000760
0007000EC0
0006001D80
000C001B80
0018003700
0030006E00
006000DC00
00C001F800
018003E000
030003C000
0600078000
0C000F0000
18001E0000
38003C0000
3000380000
6000700100
4000E00300
C001C00200
C003C00400
8006C00C00
C00C801800
C038C03000
E0F0C06000
7FC07BC000
1F001F0000
ENDCHAR
STARTCHAR Uacute
ENCODING 218
SWIDTH 367 0
DWIDTH 24 0
BBX 36 35 8 0
BITMAP
0000000040
00000001C0
0000000FC0
0000003E00
0000007000
0000000000
00001C0030
0000260070
003E4400F0
0003F803B0
0003000760
0007000EC0
0006001D80
000C001B80
0018003700
0030006E00
006000DC00
00C001F800
018003E000
030003C000
0600078000
0C000F0000
18001E0000
38003C0000
3000380000
6000700100
4000E00300
C001C00200
C003C00400
8006C00C00
C00C801800
C038C03000
E0F0C06000
7FC07BC000
1F001F0000
ENDCHAR
STARTCHAR Ucircumflex
ENCODING 219
SWIDTH 367 0
DWIDTH 24 0
BBX 36 34 8 0
BITMAP
0000001000
0000003800
0000006C00
000000C600
0000008200
00001C0030
0000260070
003E4400F0
0003F803B0
0003000760
0007000EC0
0006001D80
000C001B80
0018003700
0030006E00
006000DC00
00C001F800
018003E000
030003C000
0600078000
0C000F0000
18001E0000
38003C0000
3000380000
6000700100
4000E00300
C001C00200
C003C00400
8006C00C00
C00C801800
C038C03000
E0F0C06000
7FC07BC000
1F001F0000
ENDCHAR
STARTCHAR Udieresis
ENCODING 220
SWIDTH 0 0
DWIDTH 0 0
BBX 36 33 8 0
BITMAP
0000006300
0000006600
0000000000
0000000000
00001C0030
0000260070
003E4400F0
0003F803B0
0003000760
0007000EC0
0006001D80
000C001B80
0018003700
0030006E00
006000DC00
00C001F800
018003E000
030003C000
0600078000
0C000F0000
18001E0000
38003C0000
3000380000
6000700100
4000E00300
C001C00200
C003C00400
8006C00C00
C00C801800
C038C03000
E0F0C06000
7FC07BC000
1F001F0000
ENDCHAR
STARTCHAR Yacute
ENCODING 221
SWIDTH 367 0
DWIDTH 24 0
BBX 39 47 0 -12
BITMAP
0000000006
000000001E
000000007C
00000001E0
0000000700
0000000000
000001E00E
000002601E
0001F44036
00001F0066
000038004C
0000700098
0000E000B0
0001C001E0
00018001C0
0003800380
0007000780
0007000F00
0007001900
0007007300
000381C200
0003FF0600
0000FC0600
0000000F80
000000FC00
0000079C00
00003C1800
0000E03000
0003803000
000E006000
003800E000
007001C000
00C0018000
0380038000
0600070000
0C000E0000
18001C0000
3000380000
3000700000
6000E00000
4001C00000
4007800000
C01E000000
403C000000
61F0000000
7FC0000000
1E00000000
ENDCHAR
STARTCHAR Thorn
ENCODING 222
SWIDTH 491 0
DWIDTH 31 0
BBX 34 33 3 -11
BITMAP
00000000C0
0000000140
0000000240
0000000400
0000000C00
0000FFD800
000380F000
000E303800
0018305C00
003030CE00
0060318600
0040710600
00C0620700
0080E40700
0181CC0700
0103880600
0103100E00
0106200C00
010C601C00
01F8C03800
00E098F000
0001878000
0003000000
0006000000
000C000000
380C000000
7C18000000
4C30000000
CC60000000
CCC0000000
DD80000000
5F00000000
3E00000000
ENDCHAR
STARTCHAR germandbls
ENCODING 223
SWIDTH 338 0
DWIDTH 22 0
BBX 32 29 2 0
BITMAP
0000000C
0000001E
0000003B
00000033
00000063
000000C3
000001C3
00000187
00000306
0000060E
00000E1C
00000C38
000019F0
000033E0
00007300
00006300
0000C300
00018300
00030300
00070700
00060700
000C0E00
00180E00
00301C00
00703800
80607000
C1C1E000
7F8F8000
3E1E0000
ENDCHAR
STARTCHAR agrave
ENCODING 224
SWIDTH 262 0
DWIDTH 17 0
BBX 22 17 6 0
BITMAP
01C000
01F000
007C00
000E00
000300
018000
07E800
0F3C04
3C180C
383808
703018
E06030
C06060
C0E0C0
C3E180
EF7F00
3C3C00
ENDCHAR
STARTCHAR aacute
ENCODING 225
SWIDTH 269 0
DWIDTH 17 0
BBX 22 17 6 0
BITMAP
001C00
007C00
01F000
078000
040000
018000
07D800
1F3804
3C380C
703008
603010
E06030
C06060
C0E0C0
C3E180
EF7F00
3C3C00
ENDCHAR
STARTCHAR acircumflex
ENCODING 226
SWIDTH 275 0
DWIDTH 18 0
BBX 22 17 6 0
BITMAP
00C000
01E000
033000
001000
000000
008000
07E800
0F3C04
1C1804
381808
703018
603030
E06020
C0E040
C1E180
7F3F00
3C1C00
ENDCHAR
STARTCHAR atilde
ENCODING 227
SWIDTH 275 0
DWIDTH 18 0
BBX 22 17 6 0
BITMAP
01E000
013A00
000E00
000000
000000
018000
07E800
0F3C04
1C1804
383808
703018
E02030
C06060
C0E0C0
C1E180
6F3F00
3C1C00
ENDCHAR
STARTCHAR adieresis
ENCODING 228
SWIDTH 266 0
DWIDTH 17 0
BBX 23 17 6 0
BITMAP
00C600
01C600
01CE00
000000
000000
008000
07EC00
0F3C02
1C1C04
38180C
703018
603010
E06030
E0E060
E1E1C0
773F00
3C1E00
ENDCHAR
STARTCHAR aring
ENCODING 229
SWIDTH 270 0
DWIDTH 17 0
BBX 22 17 6 0
BITMAP
003800
002800
003800
000000
000000
018000
07E800
1F3C04
3C380C
783008
603010
E06030
C06060
C0E0C0
C3E180
EF7F00
3C3C00
ENDCHAR
STARTCHAR ae
ENCODING 230
SWIDTH 345 0
DWIDTH 22 0
BBX 27 11 7 0
BITMAP
07DBE020
0F7FF060
3C3C7040
78386080
6030C180
E0738300
C07E0600
C0F80C00
C3B01800
EE3FF000
7C0F8000
ENDCHAR
STARTCHAR ccedilla
ENCODING 231
SWIDTH 470 0
DWIDTH 30 0
BBX 20 18 6 -6
BITMAP
018000
07E000
1E3010
381020
701040
6000C0
E00180
E00300
E00600
601C00
7CF000
1FC000
060000
078000
00C000
00C000
07C000
078000
ENDCHAR
STARTCHAR egrave
ENCODING 232
SWIDTH 213 0
DWIDTH 14 0
BBX 19 17 6 0
BITMAP
700000
7C0000
0F0000
03C000
006000
010000
0FC000
1EC020
38C060
71C0C0
638180
E70300
FC0600
F00C00
603800
3FE000
1F8000
ENDCHAR
STARTCHAR eacute
ENCODING 233
SWIDTH 218 0
DWIDTH 14 0
BBX 19 17 6 0
BITMAP
01C000
07C000
1F0000
780000
400000
010000
0FC000
1EC020
38C060
71C0C0
638180
E70300
FC0600
700C00
603800
3FE000
1F8000
ENDCHAR
STARTCHAR ecircumflex
ENCODING 234
SWIDTH 213 0
DWIDTH 14 0
BBX 19 17 6 0
BITMAP
070000
058000
0CC000
084000
000000
000000
0FC000
1EC020
38C060
71C0C0
638180
E70300
FC0600
F00C00
603800
7FE000
1F8000
ENDCHAR
STARTCHAR edieresis
ENCODING 235
SWIDTH 235 0
DWIDTH 15 0
BBX 19 17 7 0
BITMAP
1CC000
18C000
000000
000000
000000
000000
0F8000
3CC020
71C040
618080
C30100
CE0200
FC0400
E01800
C07000
7FE000
1F0000
ENDCHAR
STARTCHAR igrave
ENCODING 236
SWIDTH 147 0
DWIDTH 9 0
BBX 15 20 6 0
BITMAP
4000
7000
7C00
0F00
01C0
0000
0000
0000
0200
0700
0E02
1C04
380C
3018
6010
E060
C0C0
C180
EE00
7C00
ENDCHAR
STARTCHAR iacute
ENCODING 237
SWIDTH 134 0
DWIDTH 9 0
BBX 19 18 5 0
BITMAP
0001C0
0007E0
001F00
007800
004000
000000
020000
070000
0E0200
1C0400
380C00
300800
601000
E02000
E0C000
C18000
770000
3C0000
ENDCHAR
STARTCHAR icircumflex
ENCODING 238
SWIDTH 138 0
DWIDTH 9 0
BBX 15 17 5 0
BITMAP
0180
03C0
0660
0420
0000
0200
0700
0E02
1C04
380C
3008
6010
E020
E0C0
C180
7700
3C00
ENDCHAR
STARTCHAR idieresis
ENCODING 239
SWIDTH 135 0
DWIDTH 9 0
BBX 15 18 5 0
BITMAP
0100
0318
0310
0000
0000
0000
0200
0700
0E02
1C04
380C
3008
6010
E020
E0C0
C180
7700
3C00
ENDCHAR
STARTCHAR eth
ENCODING 240
SWIDTH 218 0
DWIDTH 14 0
BBX 19 21 5 0
BITMAP
200000
318000
1B0000
0C0000
1E0000
330000
010000
008000
00C000
074000
07E000
0FE000
1E3860
382F80
702000
602000
604000
E0C000
418000
770000
3C0000
ENDCHAR
STARTCHAR ntilde
ENCODING 241
SWIDTH 612 0
DWIDTH 39 0
BBX 25 17 5 0
BITMAP
00F00000
009D0000
00070000
00000000
00000000
02020000
071F0000
0E3B0080
0C630180
1CC30300
39860600
33060C00
760C0800
FC0C1800
F80C7000
F00FE000
C0078000
ENDCHAR
STARTCHAR ograve
ENCODING 242
SWIDTH 233 0
DWIDTH 15 0
BBX 21 18 6 0
BITMAP
060000
0F8000
03E000
007800
000C00
078000
07E000
0FF808
1E3C10
3C37E0
783000
703000
E02000
E06000
C0C000
C18000
7F0000
3C0000
ENDCHAR
STARTCHAR oacute
ENCODING 243
SWIDTH 233 0
DWIDTH 15 0
BBX 21 20 6 0
BITMAP
000400
001E00
007C00
03E000
070000
000000
010000
078000
07E000
0FF808
1E3C10
3C37E0
783000
703000
E02000
E06000
C0C000
C18000
7F0000
3C0000
ENDCHAR
STARTCHAR ocircumflex
ENCODING 244
SWIDTH 230 0
DWIDTH 15 0
BBX 21 20 6 0
BITMAP
006000
00F000
01F000
039800
030C00
000000
000000
078000
07E000
0FF808
1E3C10
3C37E0
783000
703000
E02000
E06000
C0C000
C18000
7F0000
3C0000
ENDCHAR
STARTCHAR otilde
ENCODING 245
SWIDTH 232 0
DWIDTH 15 0
BBX 20 17 6 0
BITMAP
00F000
019B00
000E00
000000
070000
078000
07F000
1E3C10
3C17E0
783080
703000
E02000
E06000
C0C000
C18000
7F0000
3C0000
ENDCHAR
STARTCHAR odieresis
ENCODING 246
SWIDTH 229 0
DWIDTH 15 0
BBX 21 17 7 0
BITMAP
006700
00C600
000000
060000
0F0000
0FE000
0FF018
3E3C30
3837E0
702000
E02000
C06000
C0C000
C18000
C30000
FE0000
780000
ENDCHAR
STARTCHAR divide
ENCODING 247
SWIDTH 367 0
DWIDTH 24 0
BBX 15 12 -1 5
BITMAP
0180
0380
0380
0000
0000
7FF0
FFFE
0000
0000
0180
0380
0300
ENDCHAR
STARTCHAR oslash
ENCODING 248
SWIDTH 228 0
DWIDTH 15 0
BBX 18 12 6 0
BITMAP
070000
0F3000
0FE000
1EF040
39AD80
726000
646000
E84000
D0C000
E18000
660000
FC0000
ENDCHAR
STARTCHAR ugrave
ENCODING 249
SWIDTH 268 0
DWIDTH 17 0
BBX 23 18 6 0
BITMAP
180000
3E0000
0F8000
01E000
003000
000000
040200
0C0700
1C0E02
380C04
301C0C
703818
603010
E07020
E0E060
E160C0
7E3380
3C1E00
ENDCHAR
STARTCHAR uacute
ENCODING 250
SWIDTH 281 0
DWIDTH 18 0
BBX 23 20 6 0
BITMAP
000400
001E00
007C00
01E000
070000
000000
000000
000000
040200
0C0700
1C0E02
380C04
301C08
703818
603010
E07020
E0E040
E160C0
7E3380
3C1E00
ENDCHAR
STARTCHAR ucircumflex
ENCODING 251
SWIDTH 282 0
DWIDTH 18 0
BBX 23 20 6 0
BITMAP
006000
00F000
01F000
039800
030C00
000000
000000
000000
040200
0C0700
1C0E02
380C04
301C0C
703818
603010
E07020
E0E060
E160C0
7E3380
3C1E00
ENDCHAR
STARTCHAR udieresis
ENCODING 252
SWIDTH 270 0
DWIDTH 17 0
BBX 23 17 6 0
BITMAP
00CC00
018800
000000
000000
000000
040200
0C0700
1C0E02
380C04
301C0C
703818
603010
E07020
E0E060
E160C0
7E3380
3C1E00
ENDCHAR
STARTCHAR yacute
ENCODING 253
SWIDTH 367 0
DWIDTH 24 0
BBX 38 46 -8 -28
BITMAP
0000000E00
0000003E00
000000F000
0000038000
0000000000
0000000000
0000100000
0000380E00
0000301C04
0000601808
0000E03010
0000C07030
000180E040
000180E080
000181C100
0001838600
0001CD8C00
0000FB1800
0000063000
0000066000
00000DC000
00001F0000
00003E0000
00007C0000
0000F00000
0001E00000
0006E00000
000CC00000
0019800000
0033800000
0063000000
00C6000000
018E000000
010C000000
0218000000
0430000000
0C70000000
08E0000000
10C0000000
2180000000
6300000000
4600000000
CC00000000
9800000000
F000000000
E000000000
ENDCHAR
STARTCHAR thorn
ENCODING 254
SWIDTH 225 0
DWIDTH 14 0
BBX 40 45 -15 -28
BITMAP
0000000800
0000000C00
0000001800
0000003800
0000003000
0000006000
000000FF00
000000F380
000001C181
0000038183
0000030386
000006030C
00000E0738
00000E0E60
00001E1DC0
00003FFF00
000071F800
0000700000
0000E00000
0001A00000
0003200000
0003400000
0006400000
000CC00000
0008800000
0019800000
0031000000
0021000000
0063000000
00C2000000
0084000000
0184000000
0308000000
0318000000
0610000000
0C30000000
0C60000000
1840000000
38C0000000
3180000000
6300000000
6200000000
E400000000
F800000000
7000000000
ENDCHAR
STARTCHAR ydieresis
ENCODING 255
SWIDTH 367 0
DWIDTH 24 0
BBX 38 47 -8 -28
BITMAP
00001C0000
00001F0000
0000078000
000001E000
0000003800
0000000000
0000000000
0000100000
0000380E00
0000301C04
0000601808
0000E03010
0000C07030
000180E040
000180E080
000181C100
0001838600
0001CD8C00
0000FB1800
0000063000
0000066000
00000DC000
00001F0000
00003E0000
00007C0000
0000F00000
0001E00000
0006E00000
000CC00000
0019800000
0033800000
0063000000
00C6000000
018E000000
010C000000
0218000000
0430000000
0C70000000
08E0000000
10C0000000
2180000000
6300000000
4600000000
CC00000000
9800000000
F000000000
E000000000
ENDCHAR
STARTCHAR dotlessi
ENCODING 305
SWIDTH 136 0
DWIDTH 9 0
BBX 15 11 5 0
BITMAP
0700
0E02
1C04
380C
3018
6030
E060
C0C0
C180
EF00
7C00
ENDCHAR
STARTCHAR circumflex
ENCODING 710
SWIDTH 367 0
DWIDTH 24 0
BBX 8 4 2 15
BITMAP
1C
3C
66
C3
ENDCHAR
STARTCHAR caron
ENCODING 711
SWIDTH 367 0
DWIDTH 24 0
BBX 8 4 2 13
BITMAP
C3
66
3C
38
ENDCHAR
STARTCHAR breve
ENCODING 728
SWIDTH 367 0
DWIDTH 24 0
BBX 7 4 2 14
BITMAP
C2
C2
66
3C
ENDCHAR
STARTCHAR dotaccent
ENCODING 729
SWIDTH 367 0
DWIDTH 24 0
BBX 3 3 5 14
BITMAP
E0
E0
C0
ENDCHAR
STARTCHAR ring
ENCODING 730
SWIDTH 420 0
DWIDTH 27 0
BBX 5 4 5 14
BITMAP
78
C8
D8
78
ENDCHAR
STARTCHAR ogonek
ENCODING 731
SWIDTH 367 0
DWIDTH 24 0
BBX 6 6 3 -6
BITMAP
7C
7C
C0
C0
78
30
ENDCHAR
STARTCHAR tilde
ENCODING 732
SWIDTH 367 0
DWIDTH 24 0
BBX 9 3 2 14
BITMAP
F000
9D80
0700
ENDCHAR
STARTCHAR hungarumlaut
ENCODING 733
SWIDTH 97 0
DWIDTH 6 0
BBX 6 6 3 18
BITMAP
CC
DC
EC
44
44
08
ENDCHAR
STARTCHAR mu
ENCODING 956
SWIDTH 255 0
DWIDTH 16 0
BBX 26 15 1 -4
BITMAP
00C06000
00C0E000
0180C040
03818080
03038100
06030200
0E070600
0E0E0C00
1E1E1800
3F763000
33C3E000
70000000
60000000
C0000000
C0000000
ENDCHAR
STARTCHAR quoteleft
ENCODING 8216
SWIDTH 134 0
DWIDTH 9 0
BBX 3 6 5 20
BITMAP
40
80
80
C0
E0
C0
ENDCHAR
STARTCHAR quoteright
ENCODING 8217
SWIDTH 367 0
DWIDTH 24 0
BBX 3 6 17 18
BITMAP
40
E0
E0
60
20
40
ENDCHAR
STARTCHAR minus
ENCODING 8722
SWIDTH 488 0
DWIDTH 31 0
BBX 11 2 2 10
BITMAP
7FE0
FFE0
ENDCHAR
STARTCHAR .notdef
ENCODING -1
SWIDTH 500 0
DWIDTH 32 0
BBX 26 64 3 -29
BITMAP
FFFFFFC0
FFFFFFC0
FFFFFFC0
E00001C0
E00001C0
E00001C0
E00001C0
E00001C0
E00001C0
E00001C0
E00001C0
E00001C0
E00001C0
E00001C0
E00001C0
E00001C0
E00001C0
E00001C0
E00001C0
E00001C0
E00001C0
E00001C0
E00001C0
E00001C0
E00001C0
E00001C0
E00001C0
E00001C0
E00001C0
E00001C0
E00001C0
E00001C0
E00001C0
E00001C0
E00001C0
E00001C0
E00001C0
E00001C0
E00001C0
E00001C0
E00001C0
E00001C0
E00001C0
E00001C0
E00001C0
E00001C0
E00001C0
E00001C0
E00001C0
E00001C0
E00001C0
E00001C0
E00001C0
E00001C0
E00001C0
E00001C0
E00001C0
E00001C0
E00001C0
E00001C0
E00001C0
FFFFFFC0
FFFFFFC0
FFFFFFC0
ENDCHAR
STARTCHAR f2
ENCODING -1
SWIDTH 313 0
DWIDTH 20 0
BBX 50 57 -14 -28
BITMAP
000000000001C0
000000000003C0
00000000000740
00000000000EC0
00000000001C80
00000000003980
00000000007100
0000000000E300
0000000001C600
00000000038400
00000000030800
00000000061800
000000000C3000
00000000186000
0000000038C000
00000000718000
00000000E30000
00000001CE0000
00000003980000
00000007F00800
0000000FC01800
0000001F003000
0000001E006000
0000007C00C000
000003FC018000
00001FFC060000
0000F9EC0C0000
000FC3EEF00000
001807C3C00000
00000EC0000000
00001C80000000
00003980000000
00007100000000
0000E300000000
0001C600000000
0001C400000000
00038C00000000
00071800000000
000E1000000000
001C3000000000
00386000000000
00704000000000
00E0C000000000
00E18000000000
01C30000000000
03820000000000
07040000000000
06080000000000
0E180000000000
1C300000000000
38600000000000
30C00000000000
71800000000000
E3000000000000
E6000000000000
F8000000000000
70000000000000
ENDCHAR
STARTCHAR t2
ENCODING -1
SWIDTH 190 0
DWIDTH 12 0
BBX 21 29 8 0
BITMAP
000018
000078
0000F0
0001F0
0003E0
000760
000EC0
001D80
001B00
003700
006E00
00DC00
01F800
03F000
03C000
078000
0F0000
1E0000
1C0000
380100
700200
600400
C00800
C01000
C02000
C04000
C18000
E70000
7C0000
ENDCHAR
STARTCHAR quotations
ENCODING -1
SWIDTH 60 0
DWIDTH 4 0
BBX 7 5 2 20
BITMAP
44
48
EC
EE
6E
ENDCHAR
STARTCHAR r2
ENCODING -1
SWIDTH 190 0
DWIDTH 12 0
BBX 23 13 1 0
BITMAP
010000
038400
03FC00
01F802
026004
06C008
0DC018
198030
138060
2300C0
418180
C1C600
807800
ENDCHAR
STARTCHAR t3
ENCODING -1
SWIDTH 196 0
DWIDTH 13 0
BBX 48 29 8 0
BITMAP
000018000000
000038000000
0000F8000000
0001F0000000
0003E0000000
0007E0000001
000EC000000E
001D80000070
1F9B000003C0
00FFF003FC00
006E1FFF0000
00DC00000000
01B800000000
037000000000
03C000000000
078000000000
0F0000000000
1E0000000000
1C0000000000
380100000000
700200000000
600400000000
E00C00000000
C01800000000
C03000000000
C04000000000
C18000000000
FF0000000000
3C0000000000
ENDCHAR
STARTCHAR em
ENCODING -1
SWIDTH 877 0
DWIDTH 56 0
BBX 37 2 18 7
BITMAP
FFFFFFFFF8
FFFFFFFFE0
ENDCHAR
STARTCHAR en
ENCODING -1
SWIDTH 606 0
DWIDTH 39 0
BBX 26 1 4 7
BITMAP
FFFFFFC0
ENDCHAR
STARTCHAR quotations2
ENCODING -1
SWIDTH 213 0
DWIDTH 14 0
BBX 6 6 9 20
BITMAP
DC
DC
CC
44
40
88
ENDCHAR
STARTCHAR '
ENCODING -1
SWIDTH 252 0
DWIDTH 16 0
BBX 3 6 20 18
BITMAP
40
E0
60
60
20
40
ENDCHAR
ENDFONT
